<?xml version="1.0" encoding="utf-8"?>
<!-- Generator: Adobe Illustrator 26.0.1, SVG Export Plug-In . SVG Version: 6.00 Build 0)  -->
<svg version="1.1" id="圖層_1" xmlns="http://www.w3.org/2000/svg" xmlns:xlink="http://www.w3.org/1999/xlink" x="0px" y="0px"
	 viewBox="0 0 21 21" style="enable-background:new 0 0 21 21;" xml:space="preserve">
<style type="text/css">
	.st0{fill:#FFFFFF;}
</style>
<path class="st0" d="M20.2,10.5c0-5.3-4.3-9.7-9.7-9.7c-5.3,0-9.7,4.3-9.7,9.7c0,5.3,4.3,9.7,9.7,9.7l0,0l0,0l0,0l0,0l0,0l0,0
	C15.8,20.2,20.2,15.8,20.2,10.5z M19.1,10h-3.2c-0.2-4-2.3-6.6-3.8-8C16,2.8,18.9,6,19.1,10z M14.9,10H11V2.3
	C12.3,3.4,14.8,5.9,14.9,10z M10,2.3V10H6.1C6.2,5.9,8.7,3.4,10,2.3z M10,11v7.7c-1.3-1-3.8-3.6-3.9-7.7C6.1,11,10,11,10,11z
	 M11,18.7V11h3.9C14.8,15.1,12.3,17.6,11,18.7z M8.8,2C7.3,3.3,5.2,6,5,10H1.9C2.1,6,5,2.8,8.8,2z M1.9,11h3.2c0.2,4,2.3,6.6,3.8,8
	C5,18.2,2.1,15,1.9,11z M12.2,19c1.5-1.3,3.6-4,3.8-8h3.2C18.9,15,16,18.2,12.2,19z"/>
</svg>
